<svg height="511pt" viewBox="0 0 511.99959 511" width="511pt" xmlns="http://www.w3.org/2000/svg"><path d="m15 481.496094h89.71875l178.734375 30.785156c3.824219.65625 7.871094-.160156 11.273437-2.589844.050782-.035156.101563-.066406.152344-.105468l211-155c6.601563-4.847657 8.09375-14.097657 3.347656-20.777344-23.320312-32.820313-69.75-41.4375-103.5-19.203125l-53.480468 35.265625c-8.199219-11.132813-21.390625-18.371094-36.246094-18.371094h-48.679688c-8.28125 0-11.660156-5.984375-16.953124-9.941406-39.546876-34.800782-99.1875-34.800782-138.734376 0l-11.292968 9.941406h-85.339844c-8.285156 0-15 6.714844-15 15v119.996094c0 8.285156 6.714844 15 15 15zm15-119.996094h76c3.648438 0 7.171875-1.332031 9.910156-3.742188l15.542969-13.675781c28.246094-24.859375 70.847656-24.859375 99.09375 0 3.96875 2.675781 14.9375 17.417969 36.773437 17.417969h48.679688c8.269531 0 15 6.726562 15 15 0 8.269531-6.730469 14.996094-15 14.996094h-120c-8.285156 0-15 6.71875-15 15 0 8.285156 6.714844 15 15 15h120c23.585938 0 42.976562-18.242188 44.839844-41.355469l61.398437-40.488281c16.101563-10.605469 36.957031-9.625 51.957031.984375l-191.9375 140.996093c-184.117187-31.632812-173.816406-30.136718-176.257812-30.136718h-76zm0 0"/><path d="m391 136.5c0-74.992188-60.5625-136-135-136s-135 61.007812-135 136c0 74.4375 60.5625 135 135 135s135-60.5625 135-135zm-30 0c0 52.804688-39.183594 96.621094-90 103.921875v-27.164063c17.375-6.238281 29.839844-22.871093 29.839844-42.363281 0-24.8125-20.1875-45-45-45-8.273438 0-15-6.730469-15-15 0-8.273437 6.726562-15 15-15 8.269531 0 15 6.726563 15 15 0 8.28125 6.714844 15 15 15 8.28125 0 15-6.71875 15-15 0-19.496093-12.464844-36.128906-29.839844-42.367187v-36.941406c50.816406 7.371093 90 51.605468 90 104.914062zm-210 0c0-53.308594 39.183594-97.542969 90-104.914062v36.832031c-17.542969 6.148437-30.160156 22.859375-30.160156 42.476562 0 24.8125 20.1875 44.996094 45 44.996094 8.269531 0 15 6.730469 15 15 0 8.273437-6.730469 15-15 15-8.273438 0-15-6.726563-15-15 0-8.28125-6.71875-15-15-15-8.285156 0-15 6.71875-15 15 0 19.617187 12.617187 36.328125 30.160156 42.476563v27.054687c-50.816406-7.300781-90-51.117187-90-103.921875zm0 0"/></svg>